<svg width="51" height="50" viewBox="0 0 51 50" fill="none" xmlns="http://www.w3.org/2000/svg">
<g clip-path="url(#clip0_174_206)">
<path d="M50.2862 16.2501L13.707 31.8251C10.6737 33.1098 8.12649 33.7522 6.06538 33.7522C3.73205 33.7522 2.03969 32.9348 0.988298 31.3001C0.328576 30.2501 0.134132 28.9182 0.404965 27.3043C0.677187 25.6904 1.39663 23.9696 2.5633 22.1418C3.53552 20.6626 5.13066 18.7182 7.34871 16.3085C6.59539 17.4928 6.04348 18.7937 5.71538 20.1585C5.13205 22.6473 5.65705 24.4751 7.29038 25.6418C8.06816 26.1862 9.1376 26.4585 10.4987 26.4585C11.5862 26.4585 12.8112 26.2835 14.1737 25.9335L50.2862 16.2501Z" fill="black"/>
</g>
<defs>
<clipPath id="clip0_174_206">
<rect width="50" height="50" fill="white" transform="translate(0.285713)"/>
</clipPath>
</defs>
</svg>
